<?xml version="1.0" standalone="no"?>
<!DOCTYPE svg PUBLIC "-//W3C//DTD SVG 20010904//EN"
 "http://www.w3.org/TR/2001/REC-SVG-20010904/DTD/svg10.dtd">
<svg version="1.0" xmlns="http://www.w3.org/2000/svg"
 width="208.000000pt" height="159.000000pt" viewBox="0 0 208.000000 159.000000"
 preserveAspectRatio="xMidYMid meet">

<g transform="translate(0.000000,159.000000) scale(0.100000,-0.100000)"
fill="#000000" stroke="none">
<path d="M690 1223 c-108 -39 -170 -66 -170 -73 0 -4 52 -10 116 -12 102 -3
117 -5 131 -23 12 -17 14 -72 11 -373 -2 -303 0 -354 12 -362 23 -14 94 -12
115 4 18 13 18 18 7 73 -8 39 -12 160 -12 350 0 324 1 330 68 335 31 2 32 4
32 45 l0 43 -147 -1 c-82 0 -155 -3 -163 -6z m290 -31 c0 -13 -12 -22 -40 -31
-22 -6 -44 -20 -50 -30 -5 -11 -13 -65 -16 -120 l-7 -101 -27 0 -27 0 -6 94
c-3 52 -10 104 -17 116 -15 29 -50 40 -123 40 -70 0 -67 11 8 33 33 10 94 16
178 16 117 1 127 0 127 -17z"/>
<path d="M1032 1213 c2 -13 17 -20 49 -24 114 -17 172 -84 173 -200 0 -119
-58 -175 -194 -186 -59 -5 -70 -9 -70 -24 0 -15 8 -19 33 -19 47 0 66 -17 148
-132 89 -126 161 -204 212 -229 50 -26 140 -42 188 -34 41 7 54 25 19 25 -47
0 -125 58 -208 155 -54 62 -172 229 -172 243 0 6 24 24 54 41 89 50 134 130
122 216 -18 114 -128 185 -289 185 -60 0 -68 -2 -65 -17z"/>
</g>
</svg>
